<svg width="820" height="240" viewBox="0 0 820 240" fill="none" xmlns="http://www.w3.org/2000/svg" font-family="'Segoe UI', Helvetica, Arial, sans-serif">
  <defs>
    <linearGradient id="accent" x1="0" y1="0" x2="1" y2="1">
      <stop offset="0%" stop-color="#89F7FE"/>
      <stop offset="100%" stop-color="#66A6FF"/>
    </linearGradient>
    <linearGradient id="ring" x1="0" y1="0" x2="1" y2="1">
      <stop offset="0%" stop-color="#89F7FE" stop-opacity="0.9"/>
      <stop offset="100%" stop-color="#66A6FF" stop-opacity="0.4"/>
    </linearGradient>
  </defs>

  <!-- card -->
  <rect x="1.5" y="1.5" width="817" height="237" rx="22" fill="#0D1117" stroke="url(#ring)" stroke-width="1.5"/>

  <!-- macOS window dots -->
  <circle cx="34" cy="34" r="7" fill="#FF5F57"/>
  <circle cx="58" cy="34" r="7" fill="#FEBC2E"/>
  <circle cx="82" cy="34" r="7" fill="#28C840"/>

  <!-- right monogram -->
  <circle cx="712" cy="120" r="62" fill="none" stroke="url(#accent)" stroke-width="2" stroke-opacity="0.5"/>
  <text x="712" y="134" text-anchor="middle" font-size="46" font-weight="700" fill="url(#accent)">SN</text>

  <!-- name -->
  <text x="40" y="104" font-size="40" font-weight="700" fill="#F0F6FC">Soomin Nam</text>

  <!-- role -->
  <text x="42" y="140" font-size="20" font-weight="600" fill="url(#accent)">Frontend &#8594; Full-Stack Developer</text>

  <!-- tagline -->
  <text x="42" y="168" font-size="14.5" fill="#8B949E">Building large-scale, user-facing web services.</text>

  <!-- tag chips -->
  <g font-size="13" font-weight="600">
    <rect x="42" y="186" width="74" height="28" rx="14" fill="none" stroke="url(#accent)" stroke-opacity="0.6"/>
    <text x="79" y="204" text-anchor="middle" fill="#C9D1D9">React</text>

    <rect x="124" y="186" width="104" height="28" rx="14" fill="none" stroke="url(#accent)" stroke-opacity="0.6"/>
    <text x="176" y="204" text-anchor="middle" fill="#C9D1D9">TypeScript</text>

    <rect x="236" y="186" width="80" height="28" rx="14" fill="none" stroke="url(#accent)" stroke-opacity="0.6"/>
    <text x="276" y="204" text-anchor="middle" fill="#C9D1D9">Next.js</text>

    <rect x="324" y="186" width="108" height="28" rx="14" fill="none" stroke="url(#accent)" stroke-opacity="0.6"/>
    <text x="378" y="204" text-anchor="middle" fill="#C9D1D9">Spring Boot</text>
  </g>

  <!-- slogan -->
  <text x="588" y="206" font-size="15" font-weight="700" font-style="italic" fill="url(#accent)">Just Do It.</text>
</svg>
